<svg width="24" height="24" viewBox="0 0 24 24" fill="none" xmlns="http://www.w3.org/2000/svg">
<path d="M20.5 9.70409V8.23906C20.5 7.11896 20.5 6.5589 20.282 6.13108C20.0903 5.75476 19.7843 5.4488 19.408 5.25705C18.9802 5.03906 18.4201 5.03906 17.3 5.03906H6.7C5.57989 5.03906 5.01984 5.03906 4.59202 5.25705C4.21569 5.4488 3.90973 5.75476 3.71799 6.13108C3.5 6.5589 3.5 7.11896 3.5 8.23906V9.70409M20.5 9.70409V18.1667C20.5 19.2868 20.5 19.8468 20.282 20.2746C20.0903 20.651 19.7843 20.9569 19.408 21.1487C18.9802 21.3667 18.4201 21.3667 17.3 21.3667H6.7C5.57989 21.3667 5.01984 21.3667 4.59202 21.1487C4.21569 20.9569 3.90973 20.651 3.71799 20.2746C3.5 19.8468 3.5 19.2868 3.5 18.1667V9.70409M20.5 9.70409H3.5" stroke="black" stroke-width="1.6"/>
<path d="M8.5 2.44043L8.5 6.8623M15.5 2.44043L15.5 6.8623" stroke="black" stroke-width="1.6" stroke-linecap="round"/>
<path d="M12 18L12 13" stroke="black" stroke-width="1.6" stroke-linecap="round"/>
<path d="M14.5 15.5L9.5 15.5" stroke="black" stroke-width="1.6" stroke-linecap="round"/>
</svg>
