<svg width="322" height="322" viewBox="0 0 322 322" fill="none" xmlns="http://www.w3.org/2000/svg">
<path d="M124.604 313.773L124.364 318H128.597H193.137H197.36L197.131 313.783L191.717 214.107L275.403 269.001L278.949 271.327L281.064 267.651L313.467 211.339L315.582 207.663L311.789 205.766L222.266 161L311.789 116.234L315.582 114.337L313.467 110.661L281.064 54.3488L278.949 50.6731L275.403 52.9991L191.717 107.893L197.131 8.21694L197.36 4H193.137H128.597H124.364L124.604 8.22677L130.262 107.88L46.5968 52.9991L43.0509 50.6731L40.9358 54.3488L8.53299 110.661L6.42021 114.333L10.2071 116.232L99.4879 161L10.2071 205.768L6.42021 207.667L8.53299 211.339L40.9358 267.651L43.0509 271.327L46.5968 269.001L130.262 214.12L124.604 313.773Z" stroke="#A7E8E0" stroke-opacity="0.23" stroke-width="8"/>
</svg>
